<svg xmlns="http://www.w3.org/2000/svg" xmlns:xlink="http://www.w3.org/1999/xlink" viewBox="0 0 484.37 484.37"><defs><style>.cls-1{fill:url(#radial-gradient);}.cls-2{fill:#006c90;}.cls-3{fill:#fff;}.cls-4,.cls-5{fill:#658f93;}.cls-4{opacity:0.26;}.cls-5{opacity:0.16;}.cls-6{fill:gray;fill-opacity:0.16;stroke:#fff;stroke-miterlimit:10;stroke-opacity:0.21;}.cls-7{fill:#4d4d4d;}.cls-8{fill:url(#linear-gradient);}.cls-9{fill:url(#linear-gradient-3);}.cls-10{fill:#f15d22;}.cls-11{fill:red;}</style><radialGradient id="radial-gradient" cx="242.18" cy="242.18" r="242.18" gradientUnits="userSpaceOnUse"><stop offset="0" stop-color="#fff"/><stop offset="0.11" stop-color="#fbffff"/><stop offset="0.22" stop-color="#effeff"/><stop offset="0.32" stop-color="#dbfcff"/><stop offset="0.43" stop-color="#bff9ff"/><stop offset="0.54" stop-color="#9bf6ff"/><stop offset="0.64" stop-color="#6ff1ff"/><stop offset="0.75" stop-color="#3cedff"/><stop offset="0.85" stop-color="#00e7ff"/><stop offset="0.91" stop-color="#00e3ff"/><stop offset="0.97" stop-color="#00d7ff"/><stop offset="1" stop-color="#00ceff"/></radialGradient><linearGradient id="linear-gradient" x1="241.74" y1="336.49" x2="241.74" y2="397.23" gradientUnits="userSpaceOnUse"><stop offset="0" stop-color="#ff9b00"/><stop offset="0.03" stop-color="#f98604"/><stop offset="0.09" stop-color="#ef670a"/><stop offset="0.16" stop-color="#e74b0f"/><stop offset="0.23" stop-color="#e03514"/><stop offset="0.32" stop-color="#db2417"/><stop offset="0.43" stop-color="#d81919"/><stop offset="0.58" stop-color="#d6121b"/><stop offset="1" stop-color="#d5101b"/></linearGradient><linearGradient id="linear-gradient-3" x1="241.81" y1="338.03" x2="241.81" y2="392.61" gradientUnits="userSpaceOnUse"><stop offset="0.06" stop-color="#f1be58"/><stop offset="0.09" stop-color="#f1b74f"/><stop offset="0.28" stop-color="#f19424"/><stop offset="0.42" stop-color="#f17f0a"/><stop offset="0.5" stop-color="#f17700"/><stop offset="0.99" stop-color="#d5101b"/></linearGradient></defs><title>Asset 7AAbtn</title><g id="Layer_2" data-name="Layer 2"><g id="Layer_1-2" data-name="Layer 1"><circle class="cls-1" cx="242.18" cy="242.18" r="242.18"/><path class="cls-2" d="M242.18.17c-133.66,0-242,108.35-242,242s108.35,242,242,242,242-108.35,242-242S375.84.17,242.18.17ZM374,374A186.42,186.42,0,1,1,169.62,70.41a184.57,184.57,0,0,1,53.24-13.66q6-13.37,12.4-26.09l5.41-10.74,5.26,10.81q6.16,12.65,12,25.69A186.36,186.36,0,0,1,374,374Z"/><g id="Clouds"><path class="cls-3" d="M223.38,360.54c-13.79,0-26.64-8.17-36.17-23-9.22-14.34-14.29-33.33-14.29-53.48s5.08-39.14,14.29-53.48c9.54-14.84,22.38-23,36.17-23s26.64,8.17,36.17,23c9.22,14.34,14.29,33.33,14.29,53.48s-5.08,39.14-14.29,53.48C250,352.37,237.17,360.54,223.38,360.54Z"/><ellipse class="cls-3" cx="223.38" cy="284.06" rx="46.83" ry="72.85"/><path class="cls-4" d="M442,285.76l-19.88-.65v.31l-39.48-1.3a36.55,36.55,0,0,1,10.23,11.94,152.24,152.24,0,0,1,17.82,2.49,153.59,153.59,0,0,1-16.26,1.25A14.31,14.31,0,0,1,395,304c-.46,12-20.21,29.52-48.95,28.58a61.49,61.49,0,0,1-20.67-4.21v4a69.13,69.13,0,0,0,22.95,4.67c27.13.89,50.35-13.35,56.8-33.21,21.88-1.65,37.7-7.32,38-14.61A6,6,0,0,0,442,285.76Z"/><path class="cls-3" d="M160.67,366.37c-15.62,0-30.41-10.08-40.93-27.76a85.93,85.93,0,0,1-16.87,1.68c-16.23,0-31.45-4.42-42-12.15-12-.89-23-3.47-31.15-7.3-12.21-5.76-14.78-12.59-14.78-17.31,0-7.25,6.08-13.77,17.12-18.38,9.67-4,22.45-6.37,36.07-6.59,9.9-5,22.19-7.75,34.74-7.75,1.1,0,2.18,0,3.22.11,3.47-38.42,45.77-49.09,59.8-57.31,10.55-6.18,18.84-52.23,70.56-53.1,21.46-.36,48,0,68.74,42.92,20.37,7.64,18.55,20.52,21.48,20.52a85.05,85.05,0,0,1,38,8.84,72.06,72.06,0,0,1,26.06,21.79c10.28.83,32.36,2.92,52,6.88,23.13,4.67,33,9.8,33,17.17,0,12-18.1,32.05-45.65,36.33-4.67,12.29-19.09,22.47-41.94,29.55-21.75,6.74-46,9.14-61.51,9.14A85.45,85.45,0,0,1,291,345.88c-8.8,8.39-19,12.8-29.53,12.8-16.29,0-31.38-10.66-41.93-29.42a40.79,40.79,0,0,1-16.22,6.27C192.77,355.16,177.3,366.37,160.67,366.37Z"/><path class="cls-5" d="M404.17,278.82l0,.39-45.21-2.36a44.45,44.45,0,0,1,11.48,14.94,162.6,162.6,0,0,1,20.37,3.41,163.56,163.56,0,0,1-18.66,1.23,19,19,0,0,1,.62,5.26c-.77,14.81-23.77,36.09-56.68,34.37a65,65,0,0,1-34.34-11.7c-6.94,8.57-15.78,13.7-25.24,13.21A24.76,24.76,0,0,1,246,334.48a3.35,3.35,0,0,0-3.9.49c-.4.37-.79.74-1.18,1.12a32.56,32.56,0,0,0,18.1,7.06c9.68.5,18.91-3.6,26.78-11.05a73.62,73.62,0,0,0,32.79,9.53c31.07,1.62,58-15.54,65.77-40,25.11-1.62,43.35-8.33,43.82-17.32a7.77,7.77,0,0,0-1.24-4.36Z"/><path class="cls-4" d="M461.61,289.76l-13.91-.46c-1,5.34-8.41,9.81-19.74,12.78l2.34.46c-2.44.33-5.09.61-7.9.82-2.57.51-5.29,1-8.13,1.33a12.76,12.76,0,0,1,.39,3.34c-.38,10-12.74,23.92-33.8,27.77a63.59,63.59,0,0,1-10.91,5.46c27,.79,48.42-13.6,54.84-33.39,21.88-1.65,37.7-7.32,38-14.61A6,6,0,0,0,461.61,289.76Z"/><path class="cls-6" d="M190.79,331.74s-19.28,23.41-33.53,23.41c-13.66,0-25.74-9.7-34-24.69a71.4,71.4,0,0,1-16.48,1.93c-14.46,0-27.17-4.17-35.37-10.53C50,320.48,33.58,313,33.58,303.79c0-.11,0-.22,0-.33H30.1c0,.11,0,.22,0,.33,0,4.12-5.7,9.78,5,14.81,7.09,3.34,24.65,5.9,35.12,6.67,5.41,10.62,20.3,12.83,36.64,10.61,4.89-.67,9.88-.49,14.72-1.46C130.72,349.84,145.7,364,159.33,364c14.51,0,21.44-2.79,30.67-19.92C191.16,343.91,190.79,331.74,190.79,331.74Z"/><path class="cls-6" d="M253.1,341.53a3.27,3.27,0,0,0-2.65.13c-4.11,2.09-17.21,8.4-25.4,8.4-19.28,0-29.08-12.75-29.08-12.75l-2,4.37a2.4,2.4,0,0,0,.59,2.82c4.24,3.72,17.81,14.72,30.36,14.72,12,0,32.63-16,32.63-16Z"/></g><path class="cls-7" d="M315.66,229.79l-6.24,1.57L267.44,339a.08.08,0,0,0,.08.11s33.74-6.64,35.57-6.53l2.18-12.9a3,3,0,0,1,2.85-2.23l25.29-.5a5.35,5.35,0,0,1,5.14,3.55l8,22.52s30.51,7.17,30.4,7.41L330.65,237.55A12.75,12.75,0,0,0,315.66,229.79Zm-3.44,58,7-23.36a1.23,1.23,0,0,1,2.36,0l7,22.36a1.23,1.23,0,0,1-1.09,1.59l-13.92,1A1.23,1.23,0,0,1,312.22,287.77Z"/><path class="cls-7" d="M152.56,237.55,106.22,350.44c-.1-.24,30.4-7.41,30.4-7.41l8-22.52a5.35,5.35,0,0,1,5.14-3.55l25.29.5a3,3,0,0,1,2.85,2.23l2.18,12.9c1.83-.1,35.57,6.53,35.57,6.53a.08.08,0,0,0,.08-.11l-42-107.64-6.24-1.57A12.75,12.75,0,0,0,152.56,237.55Zm17.16,51.8-13.92-1a1.23,1.23,0,0,1-1.09-1.59l7-22.36a1.23,1.23,0,0,1,2.36,0l7,23.36A1.23,1.23,0,0,1,169.72,289.35Z"/><path class="cls-7" d="M191,190c13-14.34,31.56-22.9,49.65-22.9h.88c19.18.29,39.28,10,52.46,25.31a63.25,63.25,0,0,1,11.12,18.31C288.66,148.55,267.71,89,240.58,33.34,213.22,87.66,193.25,147.72,178,211.41A64.8,64.8,0,0,1,191,190Z"/><path class="cls-7" d="M191,190c13-14.34,31.56-22.9,49.65-22.9h.88c19.18.29,39.28,10,52.46,25.31a63.25,63.25,0,0,1,11.12,18.31C288.66,148.55,267.71,89,240.58,33.34,213.22,87.66,193.25,147.72,178,211.41A64.8,64.8,0,0,1,191,190Z"/><g id="_Pin_" data-name="&lt;Pin&gt;"><path class="cls-8" d="M258.44,355.76a10.11,10.11,0,0,0,.6-4c-.38-6.26-5.28-11.57-11.24-14.06a16.18,16.18,0,0,0-12.45.16c-6.26,2.59-10.3,6.9-10.93,13.58a16.16,16.16,0,0,0,.63,4.35c1,3.77,15.11,41.52,16.46,41.47C243.33,397.16,255.8,363.08,258.44,355.76Z"/><path class="cls-8" d="M258.44,355.76a10.11,10.11,0,0,0,.6-4c-.38-6.26-5.28-11.57-11.24-14.06a16.18,16.18,0,0,0-12.45.16c-6.26,2.59-10.3,6.9-10.93,13.58a16.16,16.16,0,0,0,.63,4.35c1,3.77,15.11,41.52,16.46,41.47C243.33,397.16,255.8,363.08,258.44,355.76Z"/><path class="cls-9" d="M244.71,387.18c-3,7.24-3,7.24-6.2,0-1.39-3.18-2.9-7.31-4.78-12.31-3.41-9.09-6.24-17.15-7.14-20.12a7.68,7.68,0,0,1-.35-2.24,13.66,13.66,0,0,1,3.78-9.11A16,16,0,0,1,241.54,338h.2A17.12,17.12,0,0,1,254,344a13.66,13.66,0,0,1,3.25,6.76,9.49,9.49,0,0,1-.47,4.69c-1.2,3.32-4.15,11.39-7.27,19.55C247.51,380.27,245.95,384.23,244.71,387.18Z"/><circle class="cls-10" cx="241.51" cy="354.76" r="5.6"/><path class="cls-3" d="M241.51,358.71a3.95,3.95,0,1,1,2.79-1.16,4,4,0,0,1-2.79,1.16Z"/></g><path class="cls-7" d="M224.51,341.65c4-6,12.71-8.74,16.68-8.74,4.44,0,13.55,2.25,16.68,9,2-1,3.18-2.3,3.18-3.64,0-3.7-5.9-6.7-19.82-6.7-10.95,0-19.82,3-19.82,6.7C221.4,339.71,222.25,340.56,224.51,341.65Z"/><path class="cls-11" d="M299.61,235.53a4.32,4.32,0,0,0,.21-.86c4.35-31.85-27-60.2-58.29-60.66s-61.13,28.26-58.08,59.16c.81,8.18,37.92,99.84,37.92,99.84,17.58-6.14,25.32-5.8,40.26.44C261.64,333.45,296.52,244.26,299.61,235.53Z"/><circle cx="240.67" cy="236.37" r="18.99"/></g></g></svg>