<?xml version="1.0" encoding="UTF-8"?>
<svg width="29px" height="29px" viewBox="0 0 29 29" version="1.1" xmlns="http://www.w3.org/2000/svg" xmlns:xlink="http://www.w3.org/1999/xlink">
    <!-- Generator: Sketch 43.2 (39069) - http://www.bohemiancoding.com/sketch -->
    <title>Icons 24px Filled / Profile</title>
    <desc>Created with Sketch.</desc>
    <defs></defs>
    <g id="Symbols" stroke="none" stroke-width="1" fill="none" fill-rule="evenodd">
        <g id="Toolbar" transform="translate(-326.000000, -44.000000)" fill="#006C90">
            <g id="Profile-blue" transform="translate(326.000000, 44.000000)">
                <path d="M14.5,17.5208333 C11.5045417,17.5208333 10.875,14.706625 10.875,12.3455417 L10.875,11.3547083 C10.875,9.425 12.5014167,7.85416667 14.5,7.85416667 C16.4985833,7.85416667 18.125,9.425 18.125,11.3547083 L18.125,12.3455417 C18.125,14.2776667 17.6549583,17.5208333 14.5,17.5208333 M5.477375,24.2319167 L5.96675,23.2531667 C6.296625,22.591 6.85729167,22.0750417 7.54483333,21.7983333 L11.5480417,20.1985 C12.2404167,19.9217917 12.6875,19.2620417 12.6875,18.5152917 L12.6875,18.3811667 C13.2300417,18.5986667 13.8281667,18.7291667 14.5,18.7291667 C15.1694167,18.7291667 15.76875,18.5938333 16.3125,18.3690833 L16.3125,18.5152917 C16.3125,19.2620417 16.7595833,19.9217917 17.4531667,20.1972917 L21.4539583,21.7983333 C22.1427083,22.0750417 22.703375,22.591 23.0344583,23.2531667 L23.5238333,24.2319167 C21.1506667,26.4335 17.9848333,27.7916667 14.5,27.7916667 C11.0151667,27.7916667 7.84933333,26.4335 5.477375,24.2319167 M0,14.5 C0,22.507625 6.492375,29 14.5,29 C22.5088333,29 29,22.507625 29,14.5 C29,6.492375 22.5088333,0 14.5,0 C6.492375,0 0,6.492375 0,14.5 Z" id="Icon--Copy"></path>
            </g>
        </g>
    </g>
</svg>